<?xml version="1.0" standalone="no"?>
<!DOCTYPE svg PUBLIC "-//W3C//DTD SVG 20010904//EN"
 "http://www.w3.org/TR/2001/REC-SVG-20010904/DTD/svg10.dtd">
<svg version="1.0" xmlns="http://www.w3.org/2000/svg"
 width="600.000000pt" height="300.000000pt" viewBox="0 0 600.000000 300.000000"
 preserveAspectRatio="xMidYMid meet">

<g transform="translate(0.000000,300.000000) scale(0.100000,-0.100000)"
fill="#000000" stroke="none">
<path d="M2520 2525 c0 -8 4 -15 10 -15 5 0 7 7 4 15 -4 8 -8 15 -10 15 -2 0
-4 -7 -4 -15z"/>
<path d="M2591 2524 c0 -11 3 -14 6 -6 3 7 2 16 -1 19 -3 4 -6 -2 -5 -13z"/>
<path d="M2883 2453 c37 -2 96 -2 130 0 34 2 4 3 -68 3 -71 0 -99 -1 -62 -3z"/>
<path d="M3048 2343 c34 -2 88 -2 120 0 31 2 3 3 -63 3 -66 0 -92 -1 -57 -3z"/>
<path d="M2953 2243 c9 -2 23 -2 30 0 6 3 -1 5 -18 5 -16 0 -22 -2 -12 -5z"/>
<path d="M2760 2211 c-50 -5 -56 -9 -65 -36 -5 -16 -16 -35 -23 -41 -19 -14
-11 -48 13 -54 12 -3 31 -28 48 -63 20 -43 36 -62 59 -71 29 -13 30 -14 10
-21 -30 -9 -18 -25 18 -25 29 0 40 15 40 56 0 16 -6 24 -17 24 -10 0 -25 5
-33 10 -10 7 16 10 82 10 l96 0 11 -37 11 -38 -5 43 c-5 37 -3 42 15 42 14 0
20 7 20 21 0 19 -5 20 -75 17 -41 -2 -75 0 -75 5 0 4 -6 7 -14 7 -8 0 -16 6
-19 13 -3 9 -9 9 -25 0 -16 -10 -23 -9 -37 7 -16 18 -15 19 54 19 39 0 76 3
81 6 6 3 10 28 10 56 l0 49 -34 0 c-18 0 -46 2 -62 4 -16 2 -54 1 -84 -3z
m155 -56 l0 -40 -72 -3 -73 -3 0 46 0 46 73 -3 72 -3 0 -40z m-155 6 c0 -6 -4
-13 -10 -16 -5 -3 -10 1 -10 9 0 9 5 16 10 16 6 0 10 -4 10 -9z"/>
<path d="M3486 2113 c-14 -38 -34 -92 -45 -120 l-19 -53 24 0 c17 0 27 8 34
25 8 22 16 25 55 25 39 0 45 -3 51 -25 4 -18 13 -25 30 -25 13 0 24 3 24 7 0
3 -19 57 -42 120 -37 96 -46 113 -64 113 -18 0 -27 -13 -48 -67z m74 -70 c0
-8 -12 -13 -30 -13 -19 0 -28 4 -25 13 2 6 10 26 16 42 l11 30 14 -30 c7 -16
13 -36 14 -42z"/>
<path d="M3670 2030 c0 -89 0 -90 25 -90 24 0 25 2 25 71 l0 70 28 -3 c26 -3
27 -5 30 -70 3 -60 5 -68 22 -68 18 0 20 7 20 71 0 39 -5 79 -10 90 -12 21
-50 25 -81 9 -13 -7 -19 -7 -19 0 0 5 -9 10 -20 10 -19 0 -20 -7 -20 -90z"/>
<path d="M3898 2106 c-10 -7 -18 -18 -18 -25 0 -14 33 -14 47 0 14 14 43 5 43
-14 0 -9 -15 -17 -40 -21 -39 -6 -60 -27 -60 -60 0 -31 28 -45 92 -44 l63 0
-5 75 c-4 59 -9 78 -24 89 -25 18 -75 18 -98 0z m72 -105 c0 -22 -29 -36 -43
-22 -15 15 0 41 23 41 13 0 20 -7 20 -19z"/>
<path d="M1877 2029 c7 -7 15 -10 18 -7 3 3 -2 9 -12 12 -14 6 -15 5 -6 -5z"/>
<path d="M2291 1904 c0 -11 3 -14 6 -6 3 7 2 16 -1 19 -3 4 -6 -2 -5 -13z"/>
<path d="M2990 1850 c0 -38 -1 -39 -29 -34 -16 3 -38 1 -49 -5 -40 -22 -47
-114 -11 -157 14 -17 61 -18 77 -2 9 9 12 9 12 0 0 -7 9 -12 20 -12 19 0 20 7
20 125 0 118 -1 125 -20 125 -17 0 -20 -7 -20 -40z m-2 -117 c2 -33 -1 -44
-17 -52 -36 -20 -64 33 -45 84 4 10 16 15 33 13 23 -3 26 -8 29 -45z"/>
<path d="M2460 1760 l0 -120 25 0 c23 0 25 4 25 45 0 38 3 45 20 45 14 0 27
-14 42 -45 17 -34 28 -45 45 -45 28 0 28 -1 1 54 -19 40 -20 46 -5 60 23 23
29 50 17 80 -12 33 -45 46 -116 46 l-54 0 0 -120z m121 64 c19 -23 -1 -48 -40
-52 -30 -3 -31 -2 -31 32 0 33 2 36 29 36 16 0 34 -7 42 -16z"/>
<path d="M2112 1820 c-27 -25 -27 -29 -3 -27 12 1 21 10 24 24 5 28 6 28 -21
3z"/>
<path d="M2708 1806 c-10 -7 -18 -18 -18 -25 0 -14 33 -14 47 0 14 14 43 5 43
-14 0 -9 -15 -17 -40 -21 -39 -6 -60 -27 -60 -60 0 -31 28 -45 92 -44 l63 0
-5 75 c-4 59 -9 78 -24 89 -25 18 -75 18 -98 0z m72 -105 c0 -22 -29 -36 -43
-22 -15 15 0 41 23 41 13 0 20 -7 20 -19z"/>
<path d="M3090 1741 c0 -51 4 -82 13 -89 6 -5 40 -10 75 -10 l62 0 0 89 c0 88
0 89 -25 89 -24 0 -25 -2 -25 -69 0 -54 -3 -70 -16 -75 -31 -12 -44 13 -44 80
0 57 -2 64 -20 64 -18 0 -20 -7 -20 -79z"/>
<path d="M3319 1810 c-25 -15 -42 -65 -35 -105 13 -66 95 -89 136 -37 l22 27
-21 3 c-12 2 -28 -4 -37 -12 -12 -12 -20 -13 -35 -5 -16 8 -19 19 -17 52 2 35
7 43 26 45 13 2 25 -3 28 -12 7 -17 39 -22 48 -7 3 5 -4 20 -15 35 -22 27 -68
35 -100 16z"/>
<path d="M3502 1804 c-12 -8 -22 -19 -22 -25 0 -13 44 -11 58 3 8 8 15 8 27
-2 23 -19 18 -27 -21 -33 -47 -8 -64 -23 -64 -57 0 -39 16 -48 86 -48 l61 0
-5 72 c-3 43 -10 78 -20 89 -19 21 -70 22 -100 1z m76 -100 c-5 -25 -35 -41
-49 -27 -18 18 -3 43 26 43 19 0 26 -5 23 -16z"/>
<path d="M3680 1730 c0 -83 2 -90 20 -90 17 0 19 8 22 68 3 65 4 67 31 70 l27
3 0 -70 c0 -69 1 -71 25 -71 24 0 25 2 25 68 0 80 -17 112 -59 112 -15 0 -32
-5 -39 -12 -9 -9 -12 -9 -12 0 0 7 -9 12 -20 12 -19 0 -20 -7 -20 -90z"/>
<path d="M3880 1747 c0 -93 11 -106 93 -105 l57 1 0 88 c0 82 -2 89 -20 89
-18 0 -20 -7 -20 -65 0 -51 -4 -66 -17 -73 -34 -18 -43 -3 -43 69 0 67 -1 69
-25 69 -24 0 -25 -2 -25 -73z"/>
<path d="M2090 1715 c0 -8 9 -15 20 -15 11 0 20 7 20 15 0 8 -9 15 -20 15 -11
0 -20 -7 -20 -15z"/>
<path d="M2097 1633 c-14 -13 -6 -23 18 -23 18 0 23 4 19 15 -6 16 -26 20 -37
8z"/>
<path d="M3202 1540 c0 -19 2 -27 5 -17 2 9 2 25 0 35 -3 9 -5 1 -5 -18z"/>
<path d="M3557 1563 c-4 -3 -7 -17 -7 -30 0 -23 23 -32 35 -13 4 6 -1 7 -11 3
-14 -5 -16 -2 -12 20 6 29 5 31 -5 20z"/>
<path d="M3242 1535 c0 -16 2 -22 5 -12 2 9 2 23 0 30 -3 6 -5 -1 -5 -18z"/>
<path d="M2781 1533 c-1 -16 5 -23 17 -23 10 0 13 3 6 8 -6 4 -14 14 -17 22
-4 10 -6 8 -6 -7z"/>
<path d="M2842 1530 c0 -14 2 -19 5 -12 2 6 2 18 0 25 -3 6 -5 1 -5 -13z"/>
<path d="M3821 1534 c0 -11 3 -14 6 -6 3 7 2 16 -1 19 -3 4 -6 -2 -5 -13z"/>
<path d="M3882 1525 c0 -16 2 -22 5 -12 2 9 2 23 0 30 -3 6 -5 -1 -5 -18z"/>
<path d="M4002 1530 c0 -14 2 -19 5 -12 2 6 2 18 0 25 -3 6 -5 1 -5 -13z"/>
<path d="M2933 1530 c2 -8 10 -15 17 -15 7 0 15 7 17 15 4 13 3 13 -6 0 -10
-13 -12 -13 -22 0 -9 13 -10 13 -6 0z"/>
<path d="M3096 1527 c3 -10 9 -15 12 -12 3 3 0 11 -7 18 -10 9 -11 8 -5 -6z"/>
<path d="M3286 1527 c3 -10 9 -15 12 -12 3 3 0 11 -7 18 -10 9 -11 8 -5 -6z"/>
<path d="M3315 1529 c-4 -6 -5 -12 -2 -15 2 -3 7 2 10 11 7 17 1 20 -8 4z"/>
<path d="M3372 1525 c-11 -12 -10 -15 3 -15 8 0 15 7 15 15 0 18 -2 18 -18 0z"/>
<path d="M3906 1523 c-6 -14 -5 -15 5 -6 7 7 10 15 7 18 -3 3 -9 -2 -12 -12z"/>
<path d="M3940 1531 c0 -6 4 -13 10 -16 6 -3 7 1 4 9 -7 18 -14 21 -14 7z"/>
<path d="M2095 1500 c-3 -5 1 -10 10 -10 9 0 13 5 10 10 -3 6 -8 10 -10 10 -2
0 -7 -4 -10 -10z"/>
<path d="M2421 1224 c0 -11 3 -14 6 -6 3 7 2 16 -1 19 -3 4 -6 -2 -5 -13z"/>
</g>
</svg>
